<mxfile host="app.diagrams.net" modified="2024-02-06T20:49:10.549Z" agent="Mozilla/5.0 (Windows NT 10.0; Win64; x64) AppleWebKit/537.36 (KHTML, like Gecko) Chrome/121.0.0.0 Safari/537.36 Edg/121.0.0.0" etag="OzjOhNjNaMa4uCurw0Si" version="23.1.1" type="device">
  <diagram name="Page-1" id="pSrCWTQ0MrUmyBq-erhx">
    <mxGraphModel dx="2039" dy="772" grid="1" gridSize="10" guides="1" tooltips="1" connect="1" arrows="1" fold="1" page="1" pageScale="1" pageWidth="850" pageHeight="1100" math="0" shadow="0">
      <root>
        <mxCell id="0" />
        <mxCell id="1" parent="0" />
        <mxCell id="HHzDjh5W3xl2r-wXphZd-11" value="User" style="whiteSpace=wrap;html=1;align=center;" vertex="1" parent="1">
          <mxGeometry x="230" y="240" width="100" height="40" as="geometry" />
        </mxCell>
        <mxCell id="HHzDjh5W3xl2r-wXphZd-13" value="Admin" style="whiteSpace=wrap;html=1;align=center;" vertex="1" parent="1">
          <mxGeometry x="460" y="440" width="100" height="40" as="geometry" />
        </mxCell>
        <mxCell id="HHzDjh5W3xl2r-wXphZd-16" value="Password" style="ellipse;whiteSpace=wrap;html=1;align=center;" vertex="1" parent="1">
          <mxGeometry x="180" y="120" width="100" height="40" as="geometry" />
        </mxCell>
        <mxCell id="HHzDjh5W3xl2r-wXphZd-17" value="Name" style="ellipse;whiteSpace=wrap;html=1;align=center;" vertex="1" parent="1">
          <mxGeometry x="40" y="120" width="100" height="40" as="geometry" />
        </mxCell>
        <mxCell id="HHzDjh5W3xl2r-wXphZd-18" value="email" style="ellipse;whiteSpace=wrap;html=1;align=center;fontStyle=4;" vertex="1" parent="1">
          <mxGeometry x="310" y="120" width="100" height="40" as="geometry" />
        </mxCell>
        <mxCell id="HHzDjh5W3xl2r-wXphZd-19" value="Phone" style="ellipse;whiteSpace=wrap;html=1;align=center;" vertex="1" parent="1">
          <mxGeometry y="180" width="100" height="40" as="geometry" />
        </mxCell>
        <mxCell id="HHzDjh5W3xl2r-wXphZd-34" value="" style="endArrow=none;html=1;rounded=0;entryX=0;entryY=0.5;entryDx=0;entryDy=0;exitX=1;exitY=0.5;exitDx=0;exitDy=0;" edge="1" parent="1" source="HHzDjh5W3xl2r-wXphZd-19" target="HHzDjh5W3xl2r-wXphZd-11">
          <mxGeometry width="50" height="50" relative="1" as="geometry">
            <mxPoint x="100" y="270" as="sourcePoint" />
            <mxPoint x="150" y="220" as="targetPoint" />
          </mxGeometry>
        </mxCell>
        <mxCell id="HHzDjh5W3xl2r-wXphZd-35" value="" style="endArrow=none;html=1;rounded=0;exitX=0;exitY=0;exitDx=0;exitDy=0;entryX=0.5;entryY=1;entryDx=0;entryDy=0;" edge="1" parent="1" source="HHzDjh5W3xl2r-wXphZd-11" target="HHzDjh5W3xl2r-wXphZd-17">
          <mxGeometry width="50" height="50" relative="1" as="geometry">
            <mxPoint x="50" y="210" as="sourcePoint" />
            <mxPoint x="100" y="160" as="targetPoint" />
          </mxGeometry>
        </mxCell>
        <mxCell id="HHzDjh5W3xl2r-wXphZd-36" value="" style="endArrow=none;html=1;rounded=0;exitX=0.5;exitY=0;exitDx=0;exitDy=0;entryX=0.403;entryY=0.975;entryDx=0;entryDy=0;entryPerimeter=0;" edge="1" parent="1" source="HHzDjh5W3xl2r-wXphZd-11" target="HHzDjh5W3xl2r-wXphZd-16">
          <mxGeometry width="50" height="50" relative="1" as="geometry">
            <mxPoint x="280" y="230" as="sourcePoint" />
            <mxPoint x="240" y="170" as="targetPoint" />
          </mxGeometry>
        </mxCell>
        <mxCell id="HHzDjh5W3xl2r-wXphZd-37" value="" style="endArrow=none;html=1;rounded=0;entryX=0;entryY=1;entryDx=0;entryDy=0;" edge="1" parent="1" target="HHzDjh5W3xl2r-wXphZd-18">
          <mxGeometry width="50" height="50" relative="1" as="geometry">
            <mxPoint x="320" y="240" as="sourcePoint" />
            <mxPoint x="370" y="170" as="targetPoint" />
          </mxGeometry>
        </mxCell>
        <mxCell id="HHzDjh5W3xl2r-wXphZd-39" value="email" style="ellipse;whiteSpace=wrap;html=1;align=center;fontStyle=4;" vertex="1" parent="1">
          <mxGeometry x="680" y="540" width="100" height="40" as="geometry" />
        </mxCell>
        <mxCell id="HHzDjh5W3xl2r-wXphZd-40" value="Password" style="ellipse;whiteSpace=wrap;html=1;align=center;" vertex="1" parent="1">
          <mxGeometry x="610" y="580" width="100" height="40" as="geometry" />
        </mxCell>
        <mxCell id="HHzDjh5W3xl2r-wXphZd-41" value="Name" style="ellipse;whiteSpace=wrap;html=1;align=center;" vertex="1" parent="1">
          <mxGeometry x="720" y="500" width="100" height="40" as="geometry" />
        </mxCell>
        <mxCell id="HHzDjh5W3xl2r-wXphZd-42" value="Phone" style="ellipse;whiteSpace=wrap;html=1;align=center;" vertex="1" parent="1">
          <mxGeometry x="500" y="580" width="100" height="40" as="geometry" />
        </mxCell>
        <mxCell id="HHzDjh5W3xl2r-wXphZd-43" value="" style="endArrow=none;html=1;rounded=0;entryX=0;entryY=0.5;entryDx=0;entryDy=0;" edge="1" parent="1" target="HHzDjh5W3xl2r-wXphZd-41">
          <mxGeometry width="50" height="50" relative="1" as="geometry">
            <mxPoint x="560" y="460" as="sourcePoint" />
            <mxPoint x="600" y="380" as="targetPoint" />
          </mxGeometry>
        </mxCell>
        <mxCell id="HHzDjh5W3xl2r-wXphZd-44" value="" style="endArrow=none;html=1;rounded=0;entryX=0;entryY=0.5;entryDx=0;entryDy=0;exitX=1;exitY=0.75;exitDx=0;exitDy=0;" edge="1" parent="1" source="HHzDjh5W3xl2r-wXphZd-13" target="HHzDjh5W3xl2r-wXphZd-39">
          <mxGeometry width="50" height="50" relative="1" as="geometry">
            <mxPoint x="570" y="480" as="sourcePoint" />
            <mxPoint x="610" y="410" as="targetPoint" />
          </mxGeometry>
        </mxCell>
        <mxCell id="HHzDjh5W3xl2r-wXphZd-45" value="" style="endArrow=none;html=1;rounded=0;" edge="1" parent="1" source="HHzDjh5W3xl2r-wXphZd-42">
          <mxGeometry width="50" height="50" relative="1" as="geometry">
            <mxPoint x="571.7" y="545.6800000000001" as="sourcePoint" />
            <mxPoint x="540" y="480" as="targetPoint" />
          </mxGeometry>
        </mxCell>
        <mxCell id="HHzDjh5W3xl2r-wXphZd-48" value="" style="endArrow=none;html=1;rounded=0;exitX=0;exitY=0.5;exitDx=0;exitDy=0;entryX=1;entryY=1;entryDx=0;entryDy=0;" edge="1" parent="1" source="HHzDjh5W3xl2r-wXphZd-40" target="HHzDjh5W3xl2r-wXphZd-13">
          <mxGeometry width="50" height="50" relative="1" as="geometry">
            <mxPoint x="600" y="500" as="sourcePoint" />
            <mxPoint x="650" y="450" as="targetPoint" />
          </mxGeometry>
        </mxCell>
        <mxCell id="HHzDjh5W3xl2r-wXphZd-49" value="send" style="shape=rhombus;perimeter=rhombusPerimeter;whiteSpace=wrap;html=1;align=center;" vertex="1" parent="1">
          <mxGeometry x="200" y="390" width="120" height="50" as="geometry" />
        </mxCell>
        <mxCell id="HHzDjh5W3xl2r-wXphZd-50" value="Messages" style="rounded=1;arcSize=10;whiteSpace=wrap;html=1;align=center;" vertex="1" parent="1">
          <mxGeometry x="70" y="550" width="100" height="40" as="geometry" />
        </mxCell>
        <mxCell id="HHzDjh5W3xl2r-wXphZd-52" value="id" style="ellipse;whiteSpace=wrap;html=1;align=center;fontStyle=4;" vertex="1" parent="1">
          <mxGeometry x="-170" y="450" width="100" height="40" as="geometry" />
        </mxCell>
        <mxCell id="HHzDjh5W3xl2r-wXphZd-53" value="Data" style="ellipse;whiteSpace=wrap;html=1;align=center;" vertex="1" parent="1">
          <mxGeometry x="-180" y="590" width="100" height="40" as="geometry" />
        </mxCell>
        <mxCell id="HHzDjh5W3xl2r-wXphZd-54" value="Title&amp;nbsp;" style="ellipse;whiteSpace=wrap;html=1;align=center;" vertex="1" parent="1">
          <mxGeometry x="-180" y="550" width="100" height="40" as="geometry" />
        </mxCell>
        <mxCell id="HHzDjh5W3xl2r-wXphZd-55" value="content" style="ellipse;whiteSpace=wrap;html=1;align=center;" vertex="1" parent="1">
          <mxGeometry x="-180" y="500" width="100" height="40" as="geometry" />
        </mxCell>
        <mxCell id="HHzDjh5W3xl2r-wXphZd-58" value="" style="endArrow=none;html=1;rounded=0;entryX=0;entryY=0;entryDx=0;entryDy=0;exitX=1;exitY=1;exitDx=0;exitDy=0;" edge="1" parent="1" source="HHzDjh5W3xl2r-wXphZd-52" target="HHzDjh5W3xl2r-wXphZd-50">
          <mxGeometry width="50" height="50" relative="1" as="geometry">
            <mxPoint x="10" y="460" as="sourcePoint" />
            <mxPoint x="60" y="410" as="targetPoint" />
          </mxGeometry>
        </mxCell>
        <mxCell id="HHzDjh5W3xl2r-wXphZd-59" value="" style="endArrow=none;html=1;rounded=0;entryX=0;entryY=0.25;entryDx=0;entryDy=0;exitX=1.003;exitY=0.692;exitDx=0;exitDy=0;exitPerimeter=0;" edge="1" parent="1" source="HHzDjh5W3xl2r-wXphZd-55" target="HHzDjh5W3xl2r-wXphZd-50">
          <mxGeometry width="50" height="50" relative="1" as="geometry">
            <mxPoint x="10" y="520" as="sourcePoint" />
            <mxPoint x="60" y="470" as="targetPoint" />
          </mxGeometry>
        </mxCell>
        <mxCell id="HHzDjh5W3xl2r-wXphZd-60" value="" style="endArrow=none;html=1;rounded=0;entryX=0;entryY=0.5;entryDx=0;entryDy=0;exitX=1;exitY=0.5;exitDx=0;exitDy=0;" edge="1" parent="1" source="HHzDjh5W3xl2r-wXphZd-54" target="HHzDjh5W3xl2r-wXphZd-50">
          <mxGeometry width="50" height="50" relative="1" as="geometry">
            <mxPoint x="10" y="570" as="sourcePoint" />
            <mxPoint x="60" y="520" as="targetPoint" />
          </mxGeometry>
        </mxCell>
        <mxCell id="HHzDjh5W3xl2r-wXphZd-61" value="" style="endArrow=none;html=1;rounded=0;exitX=1;exitY=0.5;exitDx=0;exitDy=0;entryX=0;entryY=1;entryDx=0;entryDy=0;" edge="1" parent="1" source="HHzDjh5W3xl2r-wXphZd-53" target="HHzDjh5W3xl2r-wXphZd-50">
          <mxGeometry width="50" height="50" relative="1" as="geometry">
            <mxPoint x="20" y="640" as="sourcePoint" />
            <mxPoint x="70" y="590" as="targetPoint" />
          </mxGeometry>
        </mxCell>
        <mxCell id="HHzDjh5W3xl2r-wXphZd-65" value="" style="endArrow=none;html=1;rounded=0;entryX=0.5;entryY=1;entryDx=0;entryDy=0;exitX=0.5;exitY=0;exitDx=0;exitDy=0;" edge="1" parent="1" source="HHzDjh5W3xl2r-wXphZd-49" target="HHzDjh5W3xl2r-wXphZd-11">
          <mxGeometry relative="1" as="geometry">
            <mxPoint x="240" y="390" as="sourcePoint" />
            <mxPoint x="510" y="400" as="targetPoint" />
          </mxGeometry>
        </mxCell>
        <mxCell id="HHzDjh5W3xl2r-wXphZd-66" value="1" style="resizable=0;html=1;whiteSpace=wrap;align=right;verticalAlign=bottom;" connectable="0" vertex="1" parent="HHzDjh5W3xl2r-wXphZd-65">
          <mxGeometry x="1" relative="1" as="geometry">
            <mxPoint x="-24" y="46" as="offset" />
          </mxGeometry>
        </mxCell>
        <mxCell id="HHzDjh5W3xl2r-wXphZd-67" value="" style="endArrow=none;html=1;rounded=0;exitX=0.5;exitY=1;exitDx=0;exitDy=0;entryX=0.85;entryY=-0.058;entryDx=0;entryDy=0;entryPerimeter=0;" edge="1" parent="1" source="HHzDjh5W3xl2r-wXphZd-49" target="HHzDjh5W3xl2r-wXphZd-50">
          <mxGeometry relative="1" as="geometry">
            <mxPoint x="350" y="400" as="sourcePoint" />
            <mxPoint x="510" y="400" as="targetPoint" />
          </mxGeometry>
        </mxCell>
        <mxCell id="HHzDjh5W3xl2r-wXphZd-68" value="N" style="resizable=0;html=1;whiteSpace=wrap;align=right;verticalAlign=bottom;" connectable="0" vertex="1" parent="HHzDjh5W3xl2r-wXphZd-67">
          <mxGeometry x="1" relative="1" as="geometry">
            <mxPoint x="15" y="-18" as="offset" />
          </mxGeometry>
        </mxCell>
        <mxCell id="HHzDjh5W3xl2r-wXphZd-69" value="delete" style="shape=rhombus;perimeter=rhombusPerimeter;whiteSpace=wrap;html=1;align=center;" vertex="1" parent="1">
          <mxGeometry x="290" y="540" width="120" height="60" as="geometry" />
        </mxCell>
        <mxCell id="HHzDjh5W3xl2r-wXphZd-70" value="" style="endArrow=none;html=1;rounded=0;exitX=1;exitY=0.5;exitDx=0;exitDy=0;entryX=0.35;entryY=1.058;entryDx=0;entryDy=0;entryPerimeter=0;" edge="1" parent="1" source="HHzDjh5W3xl2r-wXphZd-69" target="HHzDjh5W3xl2r-wXphZd-13">
          <mxGeometry relative="1" as="geometry">
            <mxPoint x="350" y="520" as="sourcePoint" />
            <mxPoint x="510" y="520" as="targetPoint" />
            <Array as="points">
              <mxPoint x="496" y="570" />
            </Array>
          </mxGeometry>
        </mxCell>
        <mxCell id="HHzDjh5W3xl2r-wXphZd-71" value="1" style="resizable=0;html=1;whiteSpace=wrap;align=right;verticalAlign=bottom;" connectable="0" vertex="1" parent="HHzDjh5W3xl2r-wXphZd-70">
          <mxGeometry x="1" relative="1" as="geometry">
            <mxPoint x="-8" y="36" as="offset" />
          </mxGeometry>
        </mxCell>
        <mxCell id="HHzDjh5W3xl2r-wXphZd-73" value="" style="endArrow=none;html=1;rounded=0;exitX=1;exitY=0.5;exitDx=0;exitDy=0;entryX=0;entryY=0.5;entryDx=0;entryDy=0;" edge="1" parent="1" source="HHzDjh5W3xl2r-wXphZd-50" target="HHzDjh5W3xl2r-wXphZd-69">
          <mxGeometry relative="1" as="geometry">
            <mxPoint x="350" y="400" as="sourcePoint" />
            <mxPoint x="290" y="560" as="targetPoint" />
          </mxGeometry>
        </mxCell>
        <mxCell id="HHzDjh5W3xl2r-wXphZd-74" value="N" style="resizable=0;html=1;whiteSpace=wrap;align=right;verticalAlign=bottom;" connectable="0" vertex="1" parent="HHzDjh5W3xl2r-wXphZd-73">
          <mxGeometry x="1" relative="1" as="geometry">
            <mxPoint x="-60" as="offset" />
          </mxGeometry>
        </mxCell>
        <mxCell id="HHzDjh5W3xl2r-wXphZd-75" value="" style="endArrow=none;html=1;rounded=0;entryX=0.903;entryY=1.008;entryDx=0;entryDy=0;entryPerimeter=0;" edge="1" parent="1" target="HHzDjh5W3xl2r-wXphZd-11">
          <mxGeometry relative="1" as="geometry">
            <mxPoint x="350" y="540" as="sourcePoint" />
            <mxPoint x="510" y="540" as="targetPoint" />
          </mxGeometry>
        </mxCell>
        <mxCell id="HHzDjh5W3xl2r-wXphZd-76" value="1" style="resizable=0;html=1;whiteSpace=wrap;align=right;verticalAlign=bottom;" connectable="0" vertex="1" parent="HHzDjh5W3xl2r-wXphZd-75">
          <mxGeometry x="1" relative="1" as="geometry">
            <mxPoint y="49" as="offset" />
          </mxGeometry>
        </mxCell>
        <mxCell id="HHzDjh5W3xl2r-wXphZd-77" value="Edit" style="shape=rhombus;perimeter=rhombusPerimeter;whiteSpace=wrap;html=1;align=center;" vertex="1" parent="1">
          <mxGeometry x="70" y="380" width="120" height="60" as="geometry" />
        </mxCell>
        <mxCell id="HHzDjh5W3xl2r-wXphZd-78" value="" style="endArrow=none;html=1;rounded=0;exitX=0.5;exitY=0;exitDx=0;exitDy=0;entryX=0.25;entryY=1;entryDx=0;entryDy=0;" edge="1" parent="1" source="HHzDjh5W3xl2r-wXphZd-77" target="HHzDjh5W3xl2r-wXphZd-11">
          <mxGeometry relative="1" as="geometry">
            <mxPoint x="350" y="400" as="sourcePoint" />
            <mxPoint x="510" y="400" as="targetPoint" />
          </mxGeometry>
        </mxCell>
        <mxCell id="HHzDjh5W3xl2r-wXphZd-79" value="1" style="resizable=0;html=1;whiteSpace=wrap;align=right;verticalAlign=bottom;" connectable="0" vertex="1" parent="HHzDjh5W3xl2r-wXphZd-78">
          <mxGeometry x="1" relative="1" as="geometry">
            <mxPoint x="-35" y="20" as="offset" />
          </mxGeometry>
        </mxCell>
        <mxCell id="HHzDjh5W3xl2r-wXphZd-80" value="" style="endArrow=none;html=1;rounded=0;exitX=0.5;exitY=1;exitDx=0;exitDy=0;entryX=0.663;entryY=0.058;entryDx=0;entryDy=0;entryPerimeter=0;" edge="1" parent="1" source="HHzDjh5W3xl2r-wXphZd-77" target="HHzDjh5W3xl2r-wXphZd-50">
          <mxGeometry relative="1" as="geometry">
            <mxPoint x="350" y="400" as="sourcePoint" />
            <mxPoint x="130" y="540" as="targetPoint" />
          </mxGeometry>
        </mxCell>
        <mxCell id="HHzDjh5W3xl2r-wXphZd-81" value="N" style="resizable=0;html=1;whiteSpace=wrap;align=right;verticalAlign=bottom;" connectable="0" vertex="1" parent="HHzDjh5W3xl2r-wXphZd-80">
          <mxGeometry x="1" relative="1" as="geometry">
            <mxPoint x="-16" y="-12" as="offset" />
          </mxGeometry>
        </mxCell>
        <mxCell id="HHzDjh5W3xl2r-wXphZd-83" value="Search" style="shape=rhombus;perimeter=rhombusPerimeter;whiteSpace=wrap;html=1;align=center;" vertex="1" parent="1">
          <mxGeometry x="-50" y="370" width="120" height="60" as="geometry" />
        </mxCell>
        <mxCell id="HHzDjh5W3xl2r-wXphZd-84" value="" style="endArrow=none;html=1;rounded=0;exitX=0.5;exitY=0;exitDx=0;exitDy=0;entryX=0;entryY=0.75;entryDx=0;entryDy=0;" edge="1" parent="1" source="HHzDjh5W3xl2r-wXphZd-83" target="HHzDjh5W3xl2r-wXphZd-11">
          <mxGeometry relative="1" as="geometry">
            <mxPoint x="90" y="400" as="sourcePoint" />
            <mxPoint x="250" y="400" as="targetPoint" />
          </mxGeometry>
        </mxCell>
        <mxCell id="HHzDjh5W3xl2r-wXphZd-85" value="1" style="resizable=0;html=1;whiteSpace=wrap;align=right;verticalAlign=bottom;" connectable="0" vertex="1" parent="HHzDjh5W3xl2r-wXphZd-84">
          <mxGeometry x="1" relative="1" as="geometry">
            <mxPoint x="-50" y="20" as="offset" />
          </mxGeometry>
        </mxCell>
        <mxCell id="HHzDjh5W3xl2r-wXphZd-86" value="" style="endArrow=none;html=1;rounded=0;exitX=0.5;exitY=1;exitDx=0;exitDy=0;entryX=0.25;entryY=0;entryDx=0;entryDy=0;" edge="1" parent="1" source="HHzDjh5W3xl2r-wXphZd-83" target="HHzDjh5W3xl2r-wXphZd-50">
          <mxGeometry relative="1" as="geometry">
            <mxPoint x="90" y="400" as="sourcePoint" />
            <mxPoint x="250" y="400" as="targetPoint" />
          </mxGeometry>
        </mxCell>
        <mxCell id="HHzDjh5W3xl2r-wXphZd-87" value="N" style="resizable=0;html=1;whiteSpace=wrap;align=right;verticalAlign=bottom;" connectable="0" vertex="1" parent="HHzDjh5W3xl2r-wXphZd-86">
          <mxGeometry x="1" relative="1" as="geometry">
            <mxPoint x="5" y="-10" as="offset" />
          </mxGeometry>
        </mxCell>
        <mxCell id="HHzDjh5W3xl2r-wXphZd-88" value="Ban/unban" style="shape=rhombus;perimeter=rhombusPerimeter;whiteSpace=wrap;html=1;align=center;" vertex="1" parent="1">
          <mxGeometry x="340" y="350" width="90" height="60" as="geometry" />
        </mxCell>
        <mxCell id="HHzDjh5W3xl2r-wXphZd-91" value="" style="endArrow=none;html=1;rounded=0;exitX=0.5;exitY=0;exitDx=0;exitDy=0;entryX=1;entryY=1;entryDx=0;entryDy=0;" edge="1" parent="1" source="HHzDjh5W3xl2r-wXphZd-88" target="HHzDjh5W3xl2r-wXphZd-11">
          <mxGeometry relative="1" as="geometry">
            <mxPoint x="425" y="340" as="sourcePoint" />
            <mxPoint x="335" y="290" as="targetPoint" />
          </mxGeometry>
        </mxCell>
        <mxCell id="HHzDjh5W3xl2r-wXphZd-92" value="N" style="resizable=0;html=1;whiteSpace=wrap;align=right;verticalAlign=bottom;" connectable="0" vertex="1" parent="HHzDjh5W3xl2r-wXphZd-91">
          <mxGeometry x="1" relative="1" as="geometry">
            <mxPoint x="30" y="20" as="offset" />
          </mxGeometry>
        </mxCell>
        <mxCell id="HHzDjh5W3xl2r-wXphZd-93" value="delete" style="shape=rhombus;perimeter=rhombusPerimeter;whiteSpace=wrap;html=1;align=center;" vertex="1" parent="1">
          <mxGeometry x="400" y="320" width="100" height="60" as="geometry" />
        </mxCell>
        <mxCell id="HHzDjh5W3xl2r-wXphZd-94" value="" style="endArrow=none;html=1;rounded=0;exitX=0.5;exitY=1;exitDx=0;exitDy=0;entryX=0.577;entryY=-0.042;entryDx=0;entryDy=0;entryPerimeter=0;" edge="1" parent="1" source="HHzDjh5W3xl2r-wXphZd-93" target="HHzDjh5W3xl2r-wXphZd-13">
          <mxGeometry relative="1" as="geometry">
            <mxPoint x="370" y="400" as="sourcePoint" />
            <mxPoint x="530" y="400" as="targetPoint" />
          </mxGeometry>
        </mxCell>
        <mxCell id="HHzDjh5W3xl2r-wXphZd-95" value="1" style="resizable=0;html=1;whiteSpace=wrap;align=right;verticalAlign=bottom;" connectable="0" vertex="1" parent="HHzDjh5W3xl2r-wXphZd-94">
          <mxGeometry x="1" relative="1" as="geometry">
            <mxPoint x="3" y="-8" as="offset" />
          </mxGeometry>
        </mxCell>
        <mxCell id="HHzDjh5W3xl2r-wXphZd-96" value="" style="endArrow=none;html=1;rounded=0;entryX=1;entryY=0.5;entryDx=0;entryDy=0;exitX=0.5;exitY=0;exitDx=0;exitDy=0;" edge="1" parent="1" source="HHzDjh5W3xl2r-wXphZd-93" target="HHzDjh5W3xl2r-wXphZd-11">
          <mxGeometry relative="1" as="geometry">
            <mxPoint x="500" y="300" as="sourcePoint" />
            <mxPoint x="530" y="400" as="targetPoint" />
          </mxGeometry>
        </mxCell>
        <mxCell id="HHzDjh5W3xl2r-wXphZd-97" value="N" style="resizable=0;html=1;whiteSpace=wrap;align=right;verticalAlign=bottom;" connectable="0" vertex="1" parent="HHzDjh5W3xl2r-wXphZd-96">
          <mxGeometry x="1" relative="1" as="geometry">
            <mxPoint x="80" y="40" as="offset" />
          </mxGeometry>
        </mxCell>
        <mxCell id="HHzDjh5W3xl2r-wXphZd-98" value="" style="endArrow=none;html=1;rounded=0;exitX=0.5;exitY=1;exitDx=0;exitDy=0;entryX=0;entryY=0.5;entryDx=0;entryDy=0;" edge="1" parent="1" source="HHzDjh5W3xl2r-wXphZd-88" target="HHzDjh5W3xl2r-wXphZd-13">
          <mxGeometry relative="1" as="geometry">
            <mxPoint x="370" y="400" as="sourcePoint" />
            <mxPoint x="530" y="400" as="targetPoint" />
          </mxGeometry>
        </mxCell>
        <mxCell id="HHzDjh5W3xl2r-wXphZd-99" value="1" style="resizable=0;html=1;whiteSpace=wrap;align=right;verticalAlign=bottom;" connectable="0" vertex="1" parent="HHzDjh5W3xl2r-wXphZd-98">
          <mxGeometry x="1" relative="1" as="geometry">
            <mxPoint x="-10" y="-20" as="offset" />
          </mxGeometry>
        </mxCell>
        <mxCell id="HHzDjh5W3xl2r-wXphZd-100" value="image" style="rounded=1;arcSize=10;whiteSpace=wrap;html=1;align=center;" vertex="1" parent="1">
          <mxGeometry x="670" y="80" width="100" height="40" as="geometry" />
        </mxCell>
        <mxCell id="HHzDjh5W3xl2r-wXphZd-101" value="id" style="ellipse;whiteSpace=wrap;html=1;align=center;fontStyle=4;" vertex="1" parent="1">
          <mxGeometry x="650" y="10" width="100" height="40" as="geometry" />
        </mxCell>
        <mxCell id="HHzDjh5W3xl2r-wXphZd-102" value="title" style="ellipse;whiteSpace=wrap;html=1;align=center;" vertex="1" parent="1">
          <mxGeometry x="540" y="10" width="100" height="40" as="geometry" />
        </mxCell>
        <mxCell id="HHzDjh5W3xl2r-wXphZd-103" value="" style="endArrow=none;html=1;rounded=0;entryX=0.5;entryY=1;entryDx=0;entryDy=0;exitX=0.75;exitY=0;exitDx=0;exitDy=0;" edge="1" parent="1" source="HHzDjh5W3xl2r-wXphZd-100" target="HHzDjh5W3xl2r-wXphZd-101">
          <mxGeometry width="50" height="50" relative="1" as="geometry">
            <mxPoint x="730" y="90" as="sourcePoint" />
            <mxPoint x="680" y="60" as="targetPoint" />
          </mxGeometry>
        </mxCell>
        <mxCell id="HHzDjh5W3xl2r-wXphZd-104" value="" style="endArrow=none;html=1;rounded=0;exitX=0.25;exitY=0;exitDx=0;exitDy=0;" edge="1" parent="1" source="HHzDjh5W3xl2r-wXphZd-100">
          <mxGeometry width="50" height="50" relative="1" as="geometry">
            <mxPoint x="540" y="100" as="sourcePoint" />
            <mxPoint x="590" y="50" as="targetPoint" />
          </mxGeometry>
        </mxCell>
        <mxCell id="HHzDjh5W3xl2r-wXphZd-105" value="send" style="shape=rhombus;perimeter=rhombusPerimeter;whiteSpace=wrap;html=1;align=center;" vertex="1" parent="1">
          <mxGeometry x="480" y="170" width="120" height="40" as="geometry" />
        </mxCell>
        <mxCell id="HHzDjh5W3xl2r-wXphZd-109" style="edgeStyle=orthogonalEdgeStyle;rounded=0;orthogonalLoop=1;jettySize=auto;html=1;exitX=0.5;exitY=1;exitDx=0;exitDy=0;" edge="1" parent="1">
          <mxGeometry relative="1" as="geometry">
            <mxPoint x="570" y="310" as="sourcePoint" />
            <mxPoint x="570" y="310" as="targetPoint" />
          </mxGeometry>
        </mxCell>
        <mxCell id="HHzDjh5W3xl2r-wXphZd-111" value="delete" style="shape=rhombus;perimeter=rhombusPerimeter;whiteSpace=wrap;html=1;align=center;" vertex="1" parent="1">
          <mxGeometry x="520" y="270" width="120" height="40" as="geometry" />
        </mxCell>
        <mxCell id="HHzDjh5W3xl2r-wXphZd-112" value="" style="endArrow=none;html=1;rounded=0;exitX=0.5;exitY=1;exitDx=0;exitDy=0;entryX=0.75;entryY=0;entryDx=0;entryDy=0;" edge="1" parent="1" source="HHzDjh5W3xl2r-wXphZd-111" target="HHzDjh5W3xl2r-wXphZd-13">
          <mxGeometry relative="1" as="geometry">
            <mxPoint x="370" y="400" as="sourcePoint" />
            <mxPoint x="530" y="400" as="targetPoint" />
          </mxGeometry>
        </mxCell>
        <mxCell id="HHzDjh5W3xl2r-wXphZd-113" value="1" style="resizable=0;html=1;whiteSpace=wrap;align=right;verticalAlign=bottom;" connectable="0" vertex="1" parent="HHzDjh5W3xl2r-wXphZd-112">
          <mxGeometry x="1" relative="1" as="geometry">
            <mxPoint x="15" y="-10" as="offset" />
          </mxGeometry>
        </mxCell>
        <mxCell id="HHzDjh5W3xl2r-wXphZd-114" value="" style="endArrow=none;html=1;rounded=0;entryX=0;entryY=0.5;entryDx=0;entryDy=0;" edge="1" parent="1" target="HHzDjh5W3xl2r-wXphZd-111">
          <mxGeometry relative="1" as="geometry">
            <mxPoint x="330" y="250" as="sourcePoint" />
            <mxPoint x="490" y="250" as="targetPoint" />
          </mxGeometry>
        </mxCell>
        <mxCell id="HHzDjh5W3xl2r-wXphZd-115" value="1" style="resizable=0;html=1;whiteSpace=wrap;align=right;verticalAlign=bottom;" connectable="0" vertex="1" parent="HHzDjh5W3xl2r-wXphZd-114">
          <mxGeometry x="1" relative="1" as="geometry">
            <mxPoint x="-110" y="-20" as="offset" />
          </mxGeometry>
        </mxCell>
        <mxCell id="HHzDjh5W3xl2r-wXphZd-116" value="" style="endArrow=none;html=1;rounded=0;exitX=0.5;exitY=0;exitDx=0;exitDy=0;" edge="1" parent="1" source="HHzDjh5W3xl2r-wXphZd-111">
          <mxGeometry relative="1" as="geometry">
            <mxPoint x="580" y="230" as="sourcePoint" />
            <mxPoint x="720" y="120" as="targetPoint" />
          </mxGeometry>
        </mxCell>
        <mxCell id="HHzDjh5W3xl2r-wXphZd-117" value="N" style="resizable=0;html=1;whiteSpace=wrap;align=right;verticalAlign=bottom;" connectable="0" vertex="1" parent="HHzDjh5W3xl2r-wXphZd-116">
          <mxGeometry x="1" relative="1" as="geometry">
            <mxPoint x="-20" y="20" as="offset" />
          </mxGeometry>
        </mxCell>
        <mxCell id="HHzDjh5W3xl2r-wXphZd-118" value="" style="endArrow=none;html=1;rounded=0;exitX=1;exitY=0;exitDx=0;exitDy=0;entryX=0.5;entryY=1;entryDx=0;entryDy=0;" edge="1" parent="1" source="HHzDjh5W3xl2r-wXphZd-11" target="HHzDjh5W3xl2r-wXphZd-105">
          <mxGeometry relative="1" as="geometry">
            <mxPoint x="370" y="400" as="sourcePoint" />
            <mxPoint x="530" y="400" as="targetPoint" />
          </mxGeometry>
        </mxCell>
        <mxCell id="HHzDjh5W3xl2r-wXphZd-119" value="1" style="resizable=0;html=1;whiteSpace=wrap;align=right;verticalAlign=bottom;" connectable="0" vertex="1" parent="HHzDjh5W3xl2r-wXphZd-118">
          <mxGeometry x="1" relative="1" as="geometry">
            <mxPoint x="-130" y="40" as="offset" />
          </mxGeometry>
        </mxCell>
        <mxCell id="HHzDjh5W3xl2r-wXphZd-120" value="" style="endArrow=none;html=1;rounded=0;exitX=0.5;exitY=0;exitDx=0;exitDy=0;entryX=0;entryY=0.5;entryDx=0;entryDy=0;" edge="1" parent="1" source="HHzDjh5W3xl2r-wXphZd-105" target="HHzDjh5W3xl2r-wXphZd-100">
          <mxGeometry relative="1" as="geometry">
            <mxPoint x="370" y="400" as="sourcePoint" />
            <mxPoint x="530" y="400" as="targetPoint" />
          </mxGeometry>
        </mxCell>
        <mxCell id="HHzDjh5W3xl2r-wXphZd-121" value="N" style="resizable=0;html=1;whiteSpace=wrap;align=right;verticalAlign=bottom;" connectable="0" vertex="1" parent="HHzDjh5W3xl2r-wXphZd-120">
          <mxGeometry x="1" relative="1" as="geometry">
            <mxPoint x="-30" y="10" as="offset" />
          </mxGeometry>
        </mxCell>
      </root>
    </mxGraphModel>
  </diagram>
</mxfile>
